<?xml version="1.0"?>
<svg xmlns="http://www.w3.org/2000/svg" xmlns:xlink="http://www.w3.org/1999/xlink" xmlns:svgjs="http://svgjs.com/svgjs" version="1.1" width="512" height="512" x="0" y="0" viewBox="0 0 481.84 481.84" style="enable-background:new 0 0 512 512" xml:space="preserve" class=""><g>
<g xmlns="http://www.w3.org/2000/svg">
	<g>
		<path d="M463.88,17.28c-10.621-10.523-25.052-16.295-40-16H296.92c-2.126-0.012-4.17,0.823-5.68,2.32    c-1.497,1.51-2.332,3.554-2.32,5.68v46.56c-0.052,5.767,3.005,11.116,8,14c4.95,2.858,11.05,2.858,16,0    c6.593-3.991,14.424-5.415,22-4c17.384,3.182,28.898,19.854,25.716,37.238c-0.963,5.263-3.231,10.201-6.596,14.362    c-6.029,7.433-15.069,11.777-24.64,11.84c-5.62-0.01-11.139-1.5-16-4.32c-4.95-2.858-11.05-2.858-16,0    c-5.02,2.898-8.081,8.284-8,14.08l-0.48,46.24c-0.012,2.126,0.823,4.17,2.32,5.68c1.477,1.507,3.49,2.37,5.6,2.4h45.92    c-13.255,22.958-5.389,52.314,17.569,65.569c7.33,4.232,15.648,6.45,24.111,6.431c3.472,0.024,6.934-0.352,10.32-1.12    c18.769-4.155,33.249-19.107,36.8-38c2.168-11.331,0.089-23.064-5.84-32.96h46.56c4.418,0,8-3.582,8-8v-128    C480.388,42.289,474.48,27.881,463.88,17.28z M464.44,177.28H425.8c-5.739-0.023-11.051,3.03-13.92,8    c-2.979,4.917-2.979,11.083,0,16c3.964,6.603,5.359,14.434,3.92,22c-3.213,17.379-19.905,28.862-37.284,25.649    c-5.213-0.964-10.105-3.207-14.236-6.529v-0.16c-12.342-9.779-15.735-27.084-8-40.8c2.979-4.917,2.979-11.083,0-16    c-2.972-4.984-8.357-8.026-14.16-8l-37.2-0.16l0.4-38.8c7.124,4.32,15.269,6.667,23.6,6.8    c26.501,0.688,48.542-20.237,49.23-46.737c0.623-23.997-16.577-44.765-40.27-48.623c-11.28-2.127-22.948-0.05-32.8,5.84    l-0.16-38.48h119.52c22.091,0,40,17.909,40,40V177.28z" fill="#838890" data-original="#000000" style="" class=""/>
	</g>
</g>
<g xmlns="http://www.w3.org/2000/svg">
	<g>
		<path d="M258.2,33.28C245.268,31.062,235.138,20.932,232.92,8c0-4.418-3.582-8-8-8s-8,3.582-8,8    c-2.218,12.932-12.348,23.062-25.28,25.28c-4.418,0-8,3.582-8,8s3.582,8,8,8c12.932,2.218,23.062,12.348,25.28,25.28    c0,4.418,3.582,8,8,8s8-3.582,8-8c2.218-12.932,12.348-23.062,25.28-25.28c4.418,0,8-3.582,8-8S262.618,33.28,258.2,33.28z     M224.92,52.72c-3.104-4.463-6.977-8.336-11.44-11.44c4.463-3.104,8.336-6.977,11.44-11.44c3.104,4.463,6.977,8.336,11.44,11.44    C231.897,44.384,228.024,48.257,224.92,52.72z" fill="#838890" data-original="#000000" style="" class=""/>
	</g>
</g>
<g xmlns="http://www.w3.org/2000/svg">
	<g>
		<path d="M366.84,291.6c-1.568-1.558-3.711-2.398-5.92-2.32h-46.56c-5.767-0.052-11.116,3.005-14,8c-2.858,4.95-2.858,11.05,0,16    c3.991,6.593,5.415,14.424,4,22c-3.182,17.384-19.854,28.898-37.238,25.716c-5.263-0.963-10.201-3.231-14.362-6.596    c-7.433-6.029-11.777-15.069-11.84-24.64c0.01-5.62,1.5-11.139,4.32-16c2.979-4.917,2.979-11.083,0-16    c-2.898-5.02-8.284-8.081-14.08-8l-38.24-0.48V250.8c7.277,4.266,15.565,6.503,24,6.48c26.509,0.13,48.105-21.254,48.236-47.763    c0.114-23.234-16.428-43.214-39.276-47.437c-11.28-2.127-22.948-0.05-32.8,5.84l-0.16-46.64c0-4.418-3.582-8-8-8h-128    c-30.928,0-56,25.072-56,56V296.8c0,1.081,0.246,2.148,0.72,3.12v125.92c0,30.928,25.072,56,56,56h127.28    c1.296-0.024,2.563-0.382,3.68-1.04h124.56c30.928,0,56-25.072,56-56V297.28C369.172,295.154,368.337,293.11,366.84,291.6z     M16.92,169.28c0-22.091,17.909-40,40-40h120v38.56c-0.052,5.767,3.005,11.116,8,14c4.95,2.858,11.05,2.858,16,0    c6.593-3.991,14.424-5.415,22-4c17.384,3.182,28.898,19.854,25.716,37.238c-0.963,5.263-3.231,10.201-6.596,14.362    c-6.029,7.433-15.069,11.777-24.64,11.84c-5.62-0.01-11.139-1.5-16-4.32c-4.95-2.858-11.05-2.858-16,0    c-4.984,2.972-8.026,8.357-8,14.16v37.44h-37.68c9.385-17.072,7.52-38.123-4.72-53.28c-2.349-2.967-5.033-5.651-8-8    c-20.625-16.655-50.846-13.436-67.501,7.189c-5.021,6.218-8.41,13.591-9.859,21.451c-2.127,11.28-0.05,22.948,5.84,32.8H16.92    V169.28z M57.56,465.28c-22.091,0-40-17.909-40-40v-120H56.2c5.739,0.023,11.051-3.03,13.92-8c3.016-4.907,3.016-11.093,0-16    c-8.712-15.377-3.309-34.904,12.068-43.616c13.367-7.573,30.23-4.578,40.172,7.136c4.278,5.606,6.584,12.468,6.56,19.52    c-0.01,5.62-1.5,11.139-4.32,16c-2.858,4.95-2.858,11.05,0,16c0.744,1.29,1.659,2.474,2.72,3.52    c3.037,3.503,7.444,5.517,12.08,5.52l37.52-0.08v37.76c-7.351-4.077-15.595-6.276-24-6.4c-26.51,0-48,21.49-48,48    c-0.02,3.762,0.356,7.516,1.12,11.2c3.916,18.995,18.877,33.767,37.92,37.44c11.28,2.12,22.945,0.043,32.8-5.84l0.16,37.84H57.56z     M352.92,424.64c0,22.091-17.909,40-40,40h-120V426c0.023-5.739-3.03-11.051-8-13.92c-4.907-3.015-11.093-3.015-16,0    c-6.603,3.964-14.434,5.359-22,3.92c-12.488-2.248-22.469-11.664-25.44-24c-0.379-2.22-0.566-4.468-0.56-6.72    c0.434-17.36,14.635-31.205,32-31.2c5.616-0.037,11.14,1.427,16,4.24c4.907,3.015,11.093,3.015,16,0    c5.02-2.898,8.081-8.284,8-14.08v-38.96l38.64,0.4c-13.275,22.947-5.434,52.31,17.513,65.584    c22.947,13.274,52.31,5.434,65.584-17.513c2.792-4.826,4.722-10.102,5.703-15.591c2.127-11.28,0.05-22.948-5.84-32.8l38.4-0.08    V424.64z" fill="#838890" data-original="#000000" style="" class=""/>
	</g>
</g>
<g xmlns="http://www.w3.org/2000/svg">
	<g>
		<path d="M424.92,289.28c0,22.091-17.909,40-40,40v16c30.928,0,56-25.072,56-56H424.92z" fill="#838890" data-original="#000000" style="" class=""/>
	</g>
</g>
<g xmlns="http://www.w3.org/2000/svg">
	<g>
		<path d="M464.92,289.28c0,44.183-35.817,80-80,80v16c53.019,0,96-42.981,96-96H464.92z" fill="#838890" data-original="#000000" style="" class=""/>
	</g>
</g>
<g xmlns="http://www.w3.org/2000/svg">
</g>
<g xmlns="http://www.w3.org/2000/svg">
</g>
<g xmlns="http://www.w3.org/2000/svg">
</g>
<g xmlns="http://www.w3.org/2000/svg">
</g>
<g xmlns="http://www.w3.org/2000/svg">
</g>
<g xmlns="http://www.w3.org/2000/svg">
</g>
<g xmlns="http://www.w3.org/2000/svg">
</g>
<g xmlns="http://www.w3.org/2000/svg">
</g>
<g xmlns="http://www.w3.org/2000/svg">
</g>
<g xmlns="http://www.w3.org/2000/svg">
</g>
<g xmlns="http://www.w3.org/2000/svg">
</g>
<g xmlns="http://www.w3.org/2000/svg">
</g>
<g xmlns="http://www.w3.org/2000/svg">
</g>
<g xmlns="http://www.w3.org/2000/svg">
</g>
<g xmlns="http://www.w3.org/2000/svg">
</g>
</g></svg>
