<?xml version="1.0"?>
<svg xmlns="http://www.w3.org/2000/svg" xmlns:xlink="http://www.w3.org/1999/xlink" xmlns:svgjs="http://svgjs.com/svgjs" version="1.1" width="512" height="512" x="0" y="0" viewBox="0 0 511.979 511.979" style="enable-background:new 0 0 512 512" xml:space="preserve" class=""><g>
<path xmlns="http://www.w3.org/2000/svg" style="" d="M490.843,256.008c0,23.273-42.314,39.352-49.296,60.298s17.56,59.663,4.443,77.646  c-13.117,17.983-57.124,6.559-75.319,19.888s-21.157,58.393-42.314,65.587S279.273,451.287,256,451.287s-51.623,35.121-72.569,28.35  c-20.945-6.77-24.119-52.469-42.314-65.587s-61.779-1.693-75.531-19.888c-13.752-18.195,11.425-56.066,4.443-77.646  s-48.873-37.236-48.873-60.509s42.314-39.352,49.296-60.298s-17.56-59.663-4.866-77.858s57.124-6.559,75.319-19.888  s21.157-58.393,42.314-65.587s49.507,28.35,72.78,28.35s51.623-35.121,72.569-28.35s24.119,52.469,42.314,65.587  c18.195,13.117,61.99,1.693,75.319,19.888c13.329,18.195-11.425,56.066-4.443,77.646  C448.741,217.079,490.843,232.735,490.843,256.008z" fill="#c2ddf2" data-original="#c2ddf2" class=""/>
<g xmlns="http://www.w3.org/2000/svg">
	<path style="" d="M189.228,501.725c-4.02,0-8.124-0.592-12.313-1.968c-20.776-6.707-29.26-27.716-36.75-46.228   c-3.025-7.447-8.061-19.909-11.425-22.342c-3.322-2.391-16.439-3.279-24.288-3.808c-18.893-1.269-42.399-2.835-55.749-20.501   c-13.71-18.132-7.68-41.235-2.835-59.79c1.968-7.553,5.289-20.205,4.02-24.098c-1.269-3.914-10.832-11.848-17.137-17.116   C18.174,293.794,0,278.709,0,256.008c0-22.85,18.512-38.104,33.407-50.375c5.882-4.845,15.72-12.948,16.989-16.608   c1.185-3.829-2.116-16.651-4.062-24.309c-4.93-19.274-10.536-41.15,1.904-58.965c12.737-18.259,36.496-19.803,55.58-21.051   c7.955-0.508,21.263-1.375,24.584-3.808c3.449-2.497,8.463-14.873,11.446-22.257c7.447-18.407,15.889-39.246,36.58-46.27   c21.051-7.193,40.96,5.501,56.912,15.656c7.236,4.612,18.153,11.552,22.68,11.552c4.612,0,15.635-6.982,22.934-11.594   c16.608-10.494,35.417-22.384,56.13-15.72c20.755,6.707,29.26,27.695,36.729,46.207c3.025,7.447,8.082,19.93,11.446,22.363   c3.322,2.412,16.481,3.279,24.331,3.808c18.957,1.269,42.568,2.856,55.664,20.734c13.181,17.983,7.299,40.854,2.581,59.24   c-1.968,7.638-5.247,20.417-3.978,24.394c1.269,3.893,11.234,12.165,17.201,17.095c14.662,12.123,32.92,27.229,32.92,49.931   c0,22.85-18.512,38.125-33.407,50.396c-5.861,4.845-15.72,12.948-16.989,16.608c-1.164,3.808,2.052,16.481,3.978,24.077   c4.93,19.443,10.515,41.51-2.497,59.345c-12.927,17.751-35.438,19.253-55.283,20.607c-7.955,0.529-21.263,1.418-24.627,3.893   c-3.427,2.518-8.421,14.895-11.425,22.278c-7.468,18.385-15.889,39.225-36.581,46.292c-21.051,7.172-40.833-5.437-56.701-15.529   c-7.151-4.57-17.962-11.467-22.469-11.467c-4.612,0-15.635,6.982-22.934,11.594C219.821,492.437,205.16,501.725,189.228,501.725z    M189.228,52.583c-2.052,1.883-7.13,14.429-10.155,21.919c-6.157,15.191-12.504,30.91-25.663,40.537   c-13.265,9.711-30.339,10.832-46.842,11.911c-7.849,0.487-21.009,1.354-24.246,3.681c-0.36,2.623,3.004,15.741,4.993,23.59   c4.104,16.079,8.378,32.688,3.195,48.196c-5.035,15.127-17.835,25.663-30.212,35.861c-5.966,4.908-17.053,14.069-18.026,18.047   c0.91,3.258,11.721,12.25,17.539,17.074c11.869,9.88,25.304,21.03,30.36,36.623c5.057,15.614,0.592,32.73-3.343,47.815   c-1.989,7.617-5.332,20.417-4.02,24.161c2.602,1.756,16.82,2.708,24.479,3.216c16.249,1.079,33.047,2.2,46.207,11.679   c13.265,9.563,19.697,25.452,25.917,40.812c3.004,7.426,8.019,19.824,11.298,22.173c2.327-0.508,13.223-7.447,19.739-11.552   c13.456-8.505,28.689-18.153,45.572-18.153c16.841,0,31.926,9.626,45.234,18.089c6.453,4.104,17.222,11.023,21.072,11.023   c2.073-1.904,7.151-14.45,10.177-21.94c6.157-15.212,12.525-30.91,25.663-40.537c13.265-9.732,31.08-10.917,46.799-11.975   c7.934-0.508,21.199-1.418,24.415-3.829c0.444-2.687-2.856-15.699-4.824-23.484c-4.041-15.952-8.23-32.455-3.089-47.857   c5.035-15.127,17.835-25.685,30.212-35.861c5.797-4.803,16.502-13.625,17.941-17.751c-1.396-3.999-11.848-12.652-17.497-17.328   c-11.933-9.859-25.452-21.051-30.487-36.644c-5.057-15.656-0.656-32.815,3.216-47.963c1.989-7.659,5.268-20.501,3.978-24.246   c-2.518-1.544-15.995-2.433-24.056-2.983c-16.27-1.079-33.09-2.2-46.27-11.7c-13.265-9.563-19.697-25.452-25.917-40.812   c-3.004-7.405-8.018-19.803-11.298-22.151c-2.306,0.529-13.223,7.447-19.74,11.573c-13.456,8.505-28.689,18.153-45.572,18.153   c-16.841,0-32.011-9.669-45.403-18.174C204.081,59.543,193.121,52.583,189.228,52.583z M469.707,256.325h0.233H469.707z" fill="#0f584d" data-original="#1138f7" class=""/>
	<path style="" d="M227.861,344.232c-5.607,0-10.98-2.2-14.958-6.199l-56.489-56.489   c-8.272-8.272-8.272-21.644,0-29.916c8.272-8.272,21.644-8.272,29.916,0l40.135,40.114l94.318-112.788   c7.49-8.928,20.797-10.177,29.81-2.645c8.971,7.49,10.134,20.84,2.666,29.81l-109.17,130.539   c-3.808,4.549-9.351,7.299-15.297,7.553C228.496,344.232,228.178,344.232,227.861,344.232z" fill="#0f584d" data-original="#1138f7" class=""/>
</g>
<g xmlns="http://www.w3.org/2000/svg">
</g>
<g xmlns="http://www.w3.org/2000/svg">
</g>
<g xmlns="http://www.w3.org/2000/svg">
</g>
<g xmlns="http://www.w3.org/2000/svg">
</g>
<g xmlns="http://www.w3.org/2000/svg">
</g>
<g xmlns="http://www.w3.org/2000/svg">
</g>
<g xmlns="http://www.w3.org/2000/svg">
</g>
<g xmlns="http://www.w3.org/2000/svg">
</g>
<g xmlns="http://www.w3.org/2000/svg">
</g>
<g xmlns="http://www.w3.org/2000/svg">
</g>
<g xmlns="http://www.w3.org/2000/svg">
</g>
<g xmlns="http://www.w3.org/2000/svg">
</g>
<g xmlns="http://www.w3.org/2000/svg">
</g>
<g xmlns="http://www.w3.org/2000/svg">
</g>
<g xmlns="http://www.w3.org/2000/svg">
</g>
</g></svg>
